<svg xmlns="http://www.w3.org/2000/svg" xml:space="preserve" width="800" height="500" viewBox="0 0 800 500">
	<defs>
		<style>
				.yellow {
						fill: #d4aa00;
						stroke: #d4aa00;
				}
				.blue {
						fill: #163255;
						stroke: #163255;
				}
		</style>
	</defs>
	<!--<path class="blue" id="gfo" d="M326.929 441.708c-14.764-1.735-25.525-6.837-35.7-16.923-13.336-13.22-18.767-28.822-17.58-50.505 1.068-19.53 5.48-30.337 17.249-42.241 12.648-12.795 27.424-17.989 48.312-16.983 18.827.907 30.196 5.567 41.71 17.095 12.825 12.841 17.957 27.552 17.133 49.109-.693 18.145-5.347 30.446-15.878 41.969-6.161 6.74-12.486 10.806-22.495 14.459-11.01 4.018-21.653 5.324-32.751 4.02m24.538-22.79c8.155-3.212 14.142-8.923 18.317-17.473 10.477-21.452 5.08-49.054-11.814-60.408-6.133-4.122-10.249-5.343-20.15-5.978-13.231-.848-24.248 3.676-32.003 13.14-15.074 18.395-11.54 53.713 6.672 66.682 1.714 1.22 5.64 3.277 8.723 4.571 4.832 2.027 6.922 2.307 15.108 2.022 6.846-.24 11.078-.953 15.147-2.556M83.544 439.799c-12.212-3.293-19.826-7.54-27.67-15.43-3.933-3.958-8.46-9.769-10.211-13.109-9.295-17.72-10.65-38.851-3.685-57.474 3.175-8.49 7.143-14.543 13.857-21.141 12.363-12.148 25.86-17.188 45.985-17.171 18.447.016 33.814 4.794 44.15 13.73l3.679 3.18-6.353 8.438c-3.495 4.64-6.427 8.56-6.518 8.708-.09.148-1.918-1.338-4.06-3.303-9.08-8.321-19.798-11.941-33.36-11.267-20.115 1-34.361 14.515-37.379 35.46-2.96 20.545 6.065 40.334 21.788 47.771 8.8 4.164 17.742 5.241 27.514 3.316 4.516-.89 10.31-2.66 12.875-3.932l4.664-2.315.28-12.25.282-12.25H101.32v-19h48.681l.675 25.535.674 25.535-2.765 2.398c-5.046 4.377-16.275 10.549-24.072 13.23-10.618 3.651-30.045 4.287-40.97 1.341m93.776-62.039v-61h83v20h-61.051l.276 15.75.275 15.75 27.172.266 27.171.266.329 7.234c.18 3.979.184 8.246.009 9.484l-.32 2.25H199.32v51h-22zm247 13.5v-7.5h48v15h-48zm-81.411-153.75c-1.709-2.638-4.724-10.79-7.12-19.25-2.137-7.545-3.177-22.568-2.284-33 .784-9.17 4.845-22.997 7.89-26.867 1.842-2.342 2.76-2.633 8.323-2.633 7.504 0 9.308 1.47 13.026 10.62 4.254 10.47 5.834 21.981 5.333 38.85-.497 16.697-2.643 25.865-7.372 31.484-2.4 2.852-3.002 3.046-9.45 3.046-6.046 0-7.067-.275-8.346-2.25m16.745-9.627c5.953-14.877 4.264-49.853-3.008-62.304-1.066-1.825-2.54-3.319-3.274-3.319-4.236 0-9.054 15.662-9.048 29.41.007 14.946 3.946 34.214 8.064 39.45 2.648 3.366 5.053 2.294 7.266-3.237m-29.834 7.722c-2.2-1.137-9.504-5.196-16.23-9.02l-12.23-6.952-1.57-5.187c-1.95-6.44-2.108-25.604-.257-31.18 1.085-3.27 2.775-4.878 10.787-10.26 11.764-7.903 22.942-14.64 23.444-14.13.208.211-.687 3.553-1.987 7.426-6.106 18.18-5.231 45.729 2.067 65.118 2.655 7.055 2.282 7.443-4.024 4.185m-117.548-14.098c-5.11-3.444-7.067-7.666-7.677-16.564-.445-6.491-.188-8.592 1.527-12.468 3.223-7.285 6.414-8.701 19.698-8.739 6.05-.017 21.125-.681 33.5-1.476s25.045-1.457 28.156-1.472l5.655-.028-.522 11.75c-.468 10.522.36 19.65 2.217 24.427.857 2.205-.373 2.352-40.32 4.823-39.83 2.465-38.185 2.475-42.234-.253m63.845-15.4 5.297-.637-.297-5.105-.297-5.105-7.997-.297c-10.808-.4-12.503.108-12.503 3.751 0 1.604.439 4.07.975 5.48"/>-->
	<path class="blue" id="gfo" d="M326.929 441.708c-14.764-1.735-25.525-6.837-35.7-16.923-13.336-13.22-18.767-28.822-17.58-50.505 1.068-19.53 5.48-30.337 17.249-42.241 12.648-12.795 27.424-17.989 48.312-16.983 18.827.907 30.196 5.567 41.71 17.095 12.825 12.841 17.957 27.552 17.133 49.109-.693 18.145-5.347 30.446-15.878 41.969-6.161 6.74-12.486 10.806-22.495 14.459-11.01 4.018-21.653 5.324-32.751 4.02m24.538-22.79c8.155-3.212 14.142-8.923 18.317-17.473 10.477-21.452 5.08-49.054-11.814-60.408-6.133-4.122-10.249-5.343-20.15-5.978-13.231-.848-24.248 3.676-32.003 13.14-15.074 18.395-11.54 53.713 6.672 66.682 1.714 1.22 5.64 3.277 8.723 4.571 4.832 2.027 6.922 2.307 15.108 2.022 6.846-.24 11.078-.953 15.147-2.556M83.544 439.799c-12.212-3.293-19.826-7.54-27.67-15.43-3.933-3.958-8.46-9.769-10.211-13.109-9.295-17.72-10.65-38.851-3.685-57.474 3.175-8.49 7.143-14.543 13.857-21.141 12.363-12.148 25.86-17.188 45.985-17.171 18.447.016 33.814 4.794 44.15 13.73l3.679 3.18-6.353 8.438c-3.495 4.64-6.427 8.56-6.518 8.708-.09.148-1.918-1.338-4.06-3.303-9.08-8.321-19.798-11.941-33.36-11.267-20.115 1-34.361 14.515-37.379 35.46-2.96 20.545 6.065 40.334 21.788 47.771 8.8 4.164 17.742 5.241 27.514 3.316 4.516-.89 10.31-2.66 12.875-3.932l4.664-2.315.28-12.25.282-12.25H101.32v-19h48.681l.675 25.535.674 25.535-2.765 2.398c-5.046 4.377-16.275 10.549-24.072 13.23-10.618 3.651-30.045 4.287-40.97 1.341m93.776-62.039v-61h83v20h-61.051l.276 15.75.275 15.75 27.172.266 27.171.266.329 7.234c.18 3.979.184 8.246.009 9.484l-.32 2.25H199.32v51h-22zm247"/>
	<!--<path class="yellow" d="M424 391 v-7.5h48v15h-48zm-81-153"/>-->
	<!--.784-9.17 4.845-22.997 7.89-26.867 1.842-2.342 2.76-2.633 8.323-2.633 7.504 0 9.308 1.47 13.026 10.62 4.254 10.47 5.834 21.981 5.333 38.85-.497 16.697-2.643 25.865-7.372 31.484-2.4 2.852-3.002 3.046-9.45 3.046-6.046 0-7.067-.275-8.346-2.25m16.745-9.627c5.953-14.877 4.264-49.853-3.008-62.304-1.066-1.825-2.54-3.319-3.274-3.319-4.236 0-9.054 15.662-9.048 29.41.007 14.946 3.946 34.214 8.064 39.45 2.648 3.366 5.053 2.294 7.266-3.237m-29.834 7.722c-2.2-1.137-9.504-5.196-16.23-9.02l-12.23-6.952-1.57-5.187c-1.95-6.44-2.108-25.604-.257-31.18 1.085-3.27 2.775-4.878 10.787-10.26 11.764-7.903 22.942-14.64 23.444-14.13.208.211-.687 3.553-1.987 7.426-6.106 18.18-5.231 45.729 2.067 65.118 2.655 7.055 2.282 7.443-4.024 4.185m-117.548-14.098c-5.11-3.444-7.067-7.666-7.677-16.564-.445-6.491-.188-8.592 1.527-12.468 3.223-7.285 6.414-8.701 19.698-8.739 6.05-.017 21.125-.681 33.5-1.476s25.045-1.457 28.156-1.472l5.655-.028-.522 11.75c-.468 10.522.36 19.65 2.217 24.427.857 2.205-.373 2.352-40.32 4.823-39.83 2.465-38.185 2.475-42.234-.253m63.845-15.4 5.297-.637-.297-5.105-.297-5.105-7.997-.297c-10.808-.4-12.503.108-12.503 3.751 0 1.604.439 4.07.975 5.48"/>-->
	<path class="blue" id="flashlight" d="M326.929 441.708c-14.764-1.735-25.525-6.837-35.7-16.923-13.336-13.22-18.767-28.822-17.58-50.505 1.068-19.53 5.48-30.337 17.249-42.241 12.648-12.795 27.424-17.989 48.312-16.983 18.827.907 30.196 5.567 41.71 17.095 12.825 12.841 17.957 27.552 17.133 49.109-.693 18.145-5.347 30.446-15.878 41.969-6.161 6.74-12.486 10.806-22.495 14.459-11.01 4.018-21.653 5.324-32.751 4.02m24.538-22.79c8.155-3.212 14.142-8.923 18.317-17.473 10.477-21.452 5.08-49.054-11.814-60.408-6.133-4.122-10.249-5.343-20.15-5.978-13.231-.848-24.248 3.676-32.003 13.14-15.074 18.395-11.54 53.713 6.672 66.682 1.714 1.22 5.64 3.277 8.723 4.571 4.832 2.027 6.922 2.307 15.108 2.022 6.846-.24 11.078-.953 15.147-2.556M83.544 439.799c-12.212-3.293-19.826-7.54-27.67-15.43-3.933-3.958-8.46-9.769-10.211-13.109-9.295-17.72-10.65-38.851-3.685-57.474 3.175-8.49 7.143-14.543 13.857-21.141 12.363-12.148 25.86-17.188 45.985-17.171 18.447.016 33.814 4.794 44.15 13.73l3.679 3.18-6.353 8.438c-3.495 4.64-6.427 8.56-6.518 8.708-.09.148-1.918-1.338-4.06-3.303-9.08-8.321-19.798-11.941-33.36-11.267-20.115 1-34.361 14.515-37.379 35.46-2.96 20.545 6.065 40.334 21.788 47.771 8.8 4.164 17.742 5.241 27.514 3.316 4.516-.89 10.31-2.66 12.875-3.932l4.664-2.315.28-12.25.282-12.25H101.32v-19h48.681l.675 25.535.674 25.535-2.765 2.398c-5.046 4.377-16.275 10.549-24.072 13.23-10.618 3.651-30.045 4.287-40.97 1.341m93.776-62.039v-61h83v20h-61.051l.276 15.75.275 15.75 27.172.266 27.171.266.329 7.234c.18 3.979.184 8.246.009 9.484l-.32 2.25H199.32v51h-22zm247 13.5v-7.5h48v15h-48zm-81.411-153.75c-1.709-2.638-4.724-10.79-7.12-19.25-2.137-7.545-3.177-22.568-2.284-33 .784-9.17 4.845-22.997 7.89-26.867 1.842-2.342 2.76-2.633 8.323-2.633 7.504 0 9.308 1.47 13.026 10.62 4.254 10.47 5.834 21.981 5.333 38.85-.497 16.697-2.643 25.865-7.372 31.484-2.4 2.852-3.002 3.046-9.45 3.046-6.046 0-7.067-.275-8.346-2.25m16.745-9.627c5.953-14.877 4.264-49.853-3.008-62.304-1.066-1.825-2.54-3.319-3.274-3.319-4.236 0-9.054 15.662-9.048 29.41.007 14.946 3.946 34.214 8.064 39.45 2.648 3.366 5.053 2.294 7.266-3.237m-29.834 7.722c-2.2-1.137-9.504-5.196-16.23-9.02l-12.23-6.952-1.57-5.187c-1.95-6.44-2.108-25.604-.257-31.18 1.085-3.27 2.775-4.878 10.787-10.26 11.764-7.903 22.942-14.64 23.444-14.13.208.211-.687 3.553-1.987 7.426-6.106 18.18-5.231 45.729 2.067 65.118 2.655 7.055 2.282 7.443-4.024 4.185m-117.548-14.098c-5.11-3.444-7.067-7.666-7.677-16.564-.445-6.491-.188-8.592 1.527-12.468 3.223-7.285 6.414-8.701 19.698-8.739 6.05-.017 21.125-.681 33.5-1.476s25.045-1.457 28.156-1.472l5.655-.028-.522 11.75c-.468 10.522.36 19.65 2.217 24.427.857 2.205-.373 2.352-40.32 4.823-39.83 2.465-38.185 2.475-42.234-.253m63.845-15.4 5.297-.637-.297-5.105-.297-5.105-7.997-.297c-10.808-.4-12.503.108-12.503 3.751 0 1.604.439 4.07.975 5.48"/>-->
	<path class="yellow" id="light" d="M578.533 458.198c-6.72-2.128-14.048-6.205-14.048-7.817 0-.525 1.369-2.897 3.042-5.27l3.043-4.317 5.98 2.964c11.068 5.486 21.884 4.596 28.126-2.313 3.428-3.795 4.853-7.429 5.975-15.238l.536-3.733-3.673 2.946c-10.02 8.036-24.1 7.852-32.285-.423-5.56-5.62-8.47-18.099-6.774-29.048 2.2-14.203 10.56-25.83 22.708-31.585 6.142-2.91 7.53-3.174 16.664-3.174 6.285 0 12.998.704 18.183 1.907 7.462 1.73 8.22 2.125 8.22 4.28 0 1.306-1.337 11.027-2.972 21.604s-3.67 24.342-4.523 30.592c-3.413 25.012-10.159 34.864-26.85 39.211-7.802 2.033-13.581 1.874-21.352-.586m27.543-43.026c6.2-4.297 7.966-8.578 10.354-25.089 1.787-12.356 1.904-14.801.744-15.536-2.184-1.383-14.559-1.041-18.26.505-1.852.774-5.149 3.188-7.326 5.366-9.925 9.925-11.614 32.452-2.772 36.978 3.787 1.938 12.958.757 17.26-2.224m-107.351 19.064c-5.102-2.622-7.967-7.254-7.97-12.885 0-3.224 1.634-13.16 11.87-72.117l2.767-15.942 7.128-.293c6.302-.259 7.127-.085 7.12 1.495-.004.983-2.919 19.266-6.476 40.63-3.558 21.363-6.468 40.504-6.468 42.535 0 4.122 1.123 5.216 5.414 5.27 2.652.032 3.037.483 4.153 4.853l1.23 4.818-3.655 1.533c-6.216 2.607-10.189 2.634-15.113.103m243.149 1.032c-7.779-2.281-12.921-9.059-12.967-17.092-.012-2.086 1.325-11.502 2.972-20.924 1.646-9.422 3.204-18.364 3.462-19.87.46-2.692.379-2.74-4.603-2.74h-5.072l.713-5.73c.392-3.151.918-6.065 1.17-6.476s2.642-.748 5.313-.748c5.446 0 5.431.022 6.485-8.967 1.091-9.315.756-8.967 8.664-8.967h7.036l-.674 5.23c-.371 2.878-.935 6.913-1.252 8.968l-.578 3.736h19.329l-.684 5.73c-.375 3.15-.972 6.047-1.326 6.435-.354.389-4.895.837-10.092.997l-9.449.29-2.145 13.948c-1.18 7.672-2.656 17.073-3.28 20.89-1.031 6.315-.962 7.169.766 9.466 1.705 2.266 2.59 2.524 8.641 2.524h6.742l1.304 4.414c.717 2.428 1.098 4.748.847 5.155-.65 1.051-9.162 3.653-13.886 4.244-2.192.274-5.538.043-7.436-.513m-210.722-4.54c1.822-9.939 5.863-34.098 7.964-47.618 1.363-8.768 2.705-16.95 2.982-18.183.465-2.068 1.056-2.242 7.589-2.242h7.083l-.653 5.23c-.36 2.878-2.42 15.992-4.578 29.144s-4.278 26.603-4.71 29.891l-.784 5.978-7.702.291-7.702.29zm113.415.955c.28-.959 2.372-13.401 4.65-27.65a16001 16001 0 0 1 7.813-48.323l3.67-22.418 7.19-.293c6.045-.246 7.191-.039 7.191 1.3 0 1.812-4.676 31.611-5.537 35.283-.526 2.245-.285 2.16 3.423-1.189 5.561-5.024 9.496-6.84 16.126-7.441 7.681-.697 12.201.285 15.992 3.475 7.073 5.952 8.25 14.038 4.951 34.016a1511 1511 0 0 0-3.616 23.276l-1.707 11.708h-7.343c-6.334 0-7.342-.24-7.331-1.744.007-.959 1.347-9.776 2.978-19.594 3.989-24.005 4.518-29.77 3.055-33.3-3.216-7.764-16.802-6.136-25.737 3.081-2.934 3.028-3.358 4.367-5.601 17.702-1.335 7.934-2.943 18.012-3.573 22.396-1.767 12.288-1.07 11.459-9.629 11.459-6.646 0-7.416-.193-6.965-1.744m-96.658-82.12c-4.543-2.2-5.651-9.18-2.106-13.26 6.914-7.957 18.904-.085 15.074 9.897-1.4 3.646-8.553 5.5-12.968 3.363"/>
	
	<path class="blue" d="m564.328 144.137-19.686 47.744Z" style="stroke-width:4;stroke-opacity:1"/>
	<path class="yellow" d="m369.92 147.84 94.72-46.08zM375.68 229.76l92.16 33.28z" style="stroke-width:4;stroke-opacity:1"/>
	<path class="blue" d="m514.547 118.115-18.101 48.423zM496.446 166.538ZM448.023 146.626l47.97 19.46zM444.402 195.048l41.182 28.963zM536.722 228.084ZM537.175 227.18ZM543.963 193.69l-9.05 34.847zM542.153 190.975l33.036 23.08zM493.278 167.895l-9.504 53.401zM494.183 164.728l49.328 27.152zM537.175 224.917l-9.051 29.868z" style="stroke-width:4;stroke-opacity:1"/>
	<ellipse class="yellow" cx="450.512" cy="147.87" rx="11.087" ry="10.748" style="stroke-opacity:1"/>
	<ellipse class="yellow" cx="514.321" cy="120.038" rx="11.766" ry="11.653" style="stroke-opacity:1"/>
	<ellipse class="yellow" cx="445.873" cy="195.614" rx="12.106" ry="11.427" style="stroke-opacity:1"/>
	<ellipse class="yellow" cx="527.784" cy="255.237" rx="11.201" ry="11.54" style="stroke-opacity:1"/>
	<ellipse class="yellow" cx="483.887" cy="222.201" rx="14.821" ry="15.387" style="stroke-opacity:1"/>
	<ellipse class="blue" cx="536.383" cy="226.5" rx="11.427" ry="10.861" style="stroke-opacity:1"/>
	<ellipse class="blue" cx="563.31" cy="145.494" rx="15.047" ry="16.065" style="stroke-opacity:1"/>
	<ellipse class="blue" cx="495.767" cy="163.596" rx="16.971" ry="16.518" style="display:inline;stroke-opacity:1"/>
	<ellipse class="blue" cx="544.302" cy="192.446" rx="16.405" ry="16.857" style="stroke-opacity:1"/>
	<ellipse class="blue" cx="574.85" cy="213.829" rx="11.427" ry="12.219" style="stroke-opacity:1"/>
</svg>
